<svg width="27" height="8" viewBox="0 0 27 8" fill="none" xmlns="http://www.w3.org/2000/svg">
<path id="Vector 2" d="M1 3.70638C0.748714 3.70638 0.545007 3.91009 0.545007 4.16138C0.545007 4.41266 0.748714 4.61637 1 4.61637L1 3.70638ZM26.3217 4.4831C26.4994 4.30542 26.4994 4.01733 26.3217 3.83965L23.4262 0.94409C23.2485 0.766404 22.9604 0.766404 22.7827 0.94409C22.605 1.12178 22.605 1.40986 22.7827 1.58755L25.3565 4.16138L22.7827 6.7352C22.605 6.91289 22.605 7.20098 22.7827 7.37866C22.9604 7.55635 23.2485 7.55635 23.4262 7.37866L26.3217 4.4831ZM1 4.61637L26 4.61637L26 3.70638L1 3.70638L1 4.61637Z" fill="black"/>
</svg>
