<svg width="21" height="15" viewBox="0 0 21 15" fill="none" xmlns="http://www.w3.org/2000/svg">
<path id="Vector" d="M18.1037 2.79889L10.4869 8.40458L2.87018 2.79889M1.97152 0.943284C1.71386 0.943284 1.46675 1.04564 1.28455 1.22784C1.10236 1.41003 1 1.65714 1 1.91481V12.8979C1 13.1555 1.10236 13.4027 1.28455 13.5849C1.46675 13.767 1.71386 13.8694 1.97152 13.8694H19.0023C19.26 13.8694 19.5071 13.767 19.6893 13.5849C19.8715 13.4027 19.9739 13.1555 19.9739 12.8979V1.90023C19.9739 1.64257 19.8715 1.39546 19.6893 1.21326C19.5071 1.03107 19.26 0.928711 19.0023 0.928711H1.97152V0.943284Z" stroke="black" stroke-width="0.485762" stroke-linecap="round" stroke-linejoin="round"/>
</svg>
