<svg width="42" height="42" viewBox="0 0 42 42" fill="none" xmlns="http://www.w3.org/2000/svg">
<rect y="20.5059" width="29" height="29" transform="rotate(-45 0 20.5059)" fill="#2B5FAD"/>
<path d="M24.3076 27.5059H15.8877V26.2842L19.3242 22.7949C19.9629 22.1504 20.499 21.5762 20.9326 21.0723C21.3721 20.5684 21.7061 20.0732 21.9346 19.5869C22.1631 19.0947 22.2773 18.5557 22.2773 17.9697C22.2773 17.2432 22.0605 16.6895 21.627 16.3086C21.1992 15.9219 20.6338 15.7285 19.9307 15.7285C19.3154 15.7285 18.7705 15.834 18.2959 16.0449C17.8213 16.2559 17.335 16.5547 16.8369 16.9414L16.0547 15.957C16.3945 15.6699 16.7637 15.415 17.1621 15.1924C17.5664 14.9697 17.9971 14.7939 18.4541 14.665C18.917 14.5361 19.4092 14.4717 19.9307 14.4717C20.7217 14.4717 21.4043 14.6094 21.9785 14.8848C22.5527 15.1602 22.9951 15.5527 23.3057 16.0625C23.6221 16.5723 23.7803 17.1787 23.7803 17.8818C23.7803 18.5615 23.6455 19.1943 23.376 19.7803C23.1064 20.3604 22.7285 20.9375 22.2422 21.5117C21.7559 22.0801 21.1875 22.6836 20.5371 23.3223L17.7422 26.1084V26.1699H24.3076V27.5059Z" fill="white"/>
</svg>
