<svg width="37" height="276" viewBox="0 0 37 276" fill="none" xmlns="http://www.w3.org/2000/svg">
<path d="M18 6.00049L18 269" stroke="#75756A" stroke-linecap="round"/>
<rect y="18.1211" width="25.6278" height="25.6278" transform="rotate(-45 0 18.1211)" fill="#2B5FAD"/>
<rect y="147.122" width="25.6278" height="25.6278" transform="rotate(-45 0 147.122)" fill="#2B5FAD"/>
<rect y="257.122" width="25.6278" height="25.6278" transform="rotate(-45 0 257.122)" fill="#2B5FAD"/>
<path d="M18.6172 24.0005H17.3516V15.9067C17.3516 15.5994 17.3516 15.3364 17.3516 15.1177C17.3568 14.8937 17.362 14.6906 17.3672 14.5083C17.3776 14.3208 17.3906 14.1307 17.4062 13.938C17.2448 14.1047 17.0938 14.2479 16.9531 14.3677C16.8125 14.4823 16.638 14.6255 16.4297 14.7974L15.125 15.8442L14.4453 14.9614L17.5391 12.5786H18.6172V24.0005Z" fill="white"/>
<path d="M21.2734 153H13.7891V151.915L16.8438 148.813C17.4115 148.24 17.888 147.73 18.2734 147.282C18.6641 146.834 18.9609 146.394 19.1641 145.961C19.3672 145.524 19.4688 145.045 19.4688 144.524C19.4688 143.878 19.276 143.386 18.8906 143.047C18.5104 142.704 18.0078 142.532 17.3828 142.532C16.8359 142.532 16.3516 142.625 15.9297 142.813C15.5078 143 15.0755 143.266 14.6328 143.61L13.9375 142.735C14.2396 142.48 14.5677 142.253 14.9219 142.055C15.2812 141.857 15.6641 141.701 16.0703 141.586C16.4818 141.472 16.9193 141.415 17.3828 141.415C18.0859 141.415 18.6927 141.537 19.2031 141.782C19.7135 142.027 20.1068 142.375 20.3828 142.829C20.6641 143.282 20.8047 143.821 20.8047 144.446C20.8047 145.05 20.6849 145.612 20.4453 146.133C20.2057 146.649 19.8698 147.162 19.4375 147.672C19.0052 148.178 18.5 148.714 17.9219 149.282L15.4375 151.758V151.813H21.2734V153Z" fill="white"/>
<path d="M20.8516 254.243C20.8516 254.753 20.7526 255.196 20.5547 255.571C20.3568 255.946 20.0807 256.253 19.7266 256.493C19.3724 256.727 18.9557 256.891 18.4766 256.985V257.047C19.3828 257.162 20.0625 257.454 20.5156 257.922C20.974 258.391 21.2031 259.006 21.2031 259.766C21.2031 260.428 21.0469 261.014 20.7344 261.524C20.4271 262.034 19.9531 262.435 19.3125 262.727C18.6771 263.014 17.862 263.157 16.8672 263.157C16.263 263.157 15.7031 263.107 15.1875 263.008C14.6771 262.915 14.1875 262.756 13.7188 262.532V261.313C14.1927 261.547 14.7083 261.732 15.2656 261.868C15.8229 261.998 16.362 262.063 16.8828 262.063C17.9245 262.063 18.6771 261.857 19.1406 261.446C19.6042 261.029 19.8359 260.461 19.8359 259.743C19.8359 259.248 19.7057 258.849 19.4453 258.547C19.1901 258.24 18.8203 258.016 18.3359 257.875C17.8568 257.73 17.2786 257.657 16.6016 257.657H15.4609V256.547H16.6094C17.2292 256.547 17.7552 256.456 18.1875 256.274C18.6198 256.092 18.9479 255.836 19.1719 255.508C19.401 255.175 19.5156 254.782 19.5156 254.329C19.5156 253.75 19.3229 253.305 18.9375 252.993C18.5521 252.675 18.0286 252.516 17.3672 252.516C16.9609 252.516 16.5911 252.558 16.2578 252.641C15.9245 252.724 15.612 252.839 15.3203 252.985C15.0286 253.131 14.737 253.3 14.4453 253.493L13.7891 252.602C14.2057 252.279 14.7135 252 15.3125 251.766C15.9115 251.532 16.5911 251.415 17.3516 251.415C18.5182 251.415 19.3932 251.68 19.9766 252.211C20.5599 252.743 20.8516 253.42 20.8516 254.243Z" fill="white"/>
</svg>
