<svg width="19" height="19" viewBox="0 0 19 19" fill="none" xmlns="http://www.w3.org/2000/svg">
<path d="M7.47099 4.08321C7.26867 3.4088 7.1295 2.71704 7.05528 2.01686C6.98144 1.31898 6.37245 0.799805 5.66987 0.799805H2.41421C1.57713 0.799805 0.931927 1.52308 1.00576 2.35686C1.74831 10.7587 8.44068 17.452 16.8434 18.194C17.6772 18.2679 18.4 17.625 18.4 16.7879V13.885C18.4 12.8255 17.8813 12.2188 17.1834 12.145C16.4832 12.0708 15.7915 11.9316 15.1171 11.7293C14.7172 11.6108 14.2928 11.6028 13.8887 11.706C13.4847 11.8093 13.1162 12.02 12.8222 12.3157L11.4288 13.7091C8.91562 12.3476 6.85266 10.2847 5.49117 7.77151L6.88457 6.37811C7.18033 6.08412 7.391 5.71556 7.49424 5.31153C7.59749 4.90749 7.58945 4.48305 7.47099 4.08321Z" stroke="black" stroke-width="0.470267" stroke-linecap="round" stroke-linejoin="round"/>
</svg>
