<svg width="42" height="42" viewBox="0 0 42 42" fill="none" xmlns="http://www.w3.org/2000/svg">
<rect y="20.5059" width="29" height="29" transform="rotate(-45 0 20.5059)" fill="#2B5FAD"/>
<path d="M23.833 16.6533C23.833 17.2275 23.7217 17.7256 23.499 18.1475C23.2764 18.5693 22.9658 18.915 22.5674 19.1846C22.1689 19.4482 21.7002 19.6328 21.1611 19.7383V19.8086C22.1807 19.9375 22.9453 20.2656 23.4551 20.793C23.9707 21.3203 24.2285 22.0117 24.2285 22.8672C24.2285 23.6113 24.0527 24.2705 23.7012 24.8447C23.3555 25.4189 22.8223 25.8701 22.1016 26.1982C21.3867 26.5205 20.4697 26.6816 19.3506 26.6816C18.6709 26.6816 18.041 26.626 17.4609 26.5146C16.8867 26.4092 16.3359 26.2305 15.8086 25.9785V24.6074C16.3418 24.8711 16.9219 25.0791 17.5488 25.2314C18.1758 25.3779 18.7822 25.4512 19.3682 25.4512C20.54 25.4512 21.3867 25.2197 21.9082 24.7568C22.4297 24.2881 22.6904 23.6494 22.6904 22.8408C22.6904 22.2842 22.5439 21.8359 22.251 21.4961C21.9639 21.1504 21.5479 20.8984 21.0029 20.7402C20.4639 20.5762 19.8135 20.4941 19.0518 20.4941H17.7686V19.2461H19.0605C19.7578 19.2461 20.3496 19.1436 20.8359 18.9385C21.3223 18.7334 21.6914 18.4463 21.9434 18.0771C22.2012 17.7021 22.3301 17.2598 22.3301 16.75C22.3301 16.0996 22.1133 15.5986 21.6797 15.2471C21.2461 14.8896 20.6572 14.7109 19.9131 14.7109C19.4561 14.7109 19.04 14.7578 18.665 14.8516C18.29 14.9453 17.9385 15.0742 17.6104 15.2383C17.2822 15.4023 16.9541 15.5928 16.626 15.8096L15.8877 14.8076C16.3564 14.4443 16.9277 14.1309 17.6016 13.8672C18.2754 13.6035 19.04 13.4717 19.8955 13.4717C21.208 13.4717 22.1924 13.7705 22.8486 14.3682C23.5049 14.9658 23.833 15.7275 23.833 16.6533Z" fill="white"/>
</svg>
