<svg width="61" height="61" viewBox="0 0 61 61" fill="none" xmlns="http://www.w3.org/2000/svg">
<rect width="61" height="61" fill="#F9F9FF" fill-opacity="0.7"/>
<path d="M45.8267 16.2536C45.7272 16.1676 45.6061 16.1104 45.4764 16.0883C45.3468 16.0662 45.2136 16.08 45.0912 16.1281L15.863 27.5664C15.565 27.6821 15.3127 27.8915 15.1441 28.163C14.9755 28.4345 14.8997 28.7535 14.9282 29.0719C14.9567 29.3902 15.0879 29.6907 15.302 29.928C15.5161 30.1652 15.8016 30.3265 16.1153 30.3874L24.1543 31.9652V40.884C24.1543 41.229 24.2574 41.5662 24.4504 41.8522C24.6434 42.1383 24.9175 42.3601 25.2374 42.4892C25.4434 42.5718 25.6631 42.6144 25.885 42.6147C26.1172 42.6141 26.347 42.5669 26.5606 42.4757C26.7741 42.3845 26.9672 42.2513 27.1282 42.0839L31.1664 37.9015L37.368 43.3401C37.6824 43.6174 38.0868 43.7711 38.5059 43.7728C38.689 43.772 38.8709 43.7433 39.0453 43.6877C39.3309 43.5973 39.5877 43.4336 39.7901 43.2129C39.9926 42.9922 40.1336 42.7223 40.1991 42.43L46.0575 16.9603C46.0868 16.8326 46.0808 16.6994 46.0402 16.5749C45.9995 16.4504 45.9257 16.3393 45.8267 16.2536ZM16.0778 28.9683C16.0694 28.8985 16.0851 28.828 16.1224 28.7684C16.1596 28.7088 16.2162 28.6638 16.2826 28.6409L41.4712 18.7833L24.5971 30.8764L16.3389 29.2553C16.2689 29.245 16.2046 29.2108 16.157 29.1585C16.1094 29.1062 16.0814 29.0389 16.0778 28.9683ZM26.2989 41.282C26.2192 41.3642 26.1168 41.4208 26.0047 41.4445C25.8927 41.4683 25.7762 41.4582 25.6699 41.4155C25.5637 41.3728 25.4725 41.2995 25.4081 41.2048C25.3437 41.1102 25.3089 40.9985 25.3081 40.884V32.7642L30.2953 37.1342L26.2989 41.282ZM39.0742 42.1676C39.0519 42.2655 39.0044 42.3559 38.9364 42.4299C38.8684 42.5038 38.7823 42.5587 38.6866 42.5892C38.5909 42.6196 38.4889 42.6245 38.3906 42.6035C38.2924 42.5824 38.2014 42.536 38.1266 42.469L25.6586 31.5355L44.6527 17.9237L39.0742 42.1676Z" fill="#2B5FAD"/>
</svg>
